<svg xmlns="http://www.w3.org/2000/svg" id="icon-wishlist" viewBox="0 0 100 100"><path d="M50,95.2c-0.9,0-1.8-0.3-2.6-0.9l-2.2-1.8C24.9,76.1,12.6,66.2,5.5,53c-6.8-12.6-6-22.6-4.1-28.7  c2.3-7.5,7.5-13.5,14.6-16.9c3.7-1.8,7.6-2.7,11.8-2.7c8.8,0,17,3.9,22.3,10.4C55.3,8.7,63.5,4.8,72.3,4.8c4.2,0,8.1,0.9,11.8,2.7  c7.1,3.4,12.3,9.4,14.6,16.9c1.9,6.1,2.7,16.1-4.1,28.7c-7.1,13.2-19.4,23.1-39.8,39.5l-2.2,1.8C51.8,94.9,50.9,95.2,50,95.2z   M27.7,13.6c-2.9,0-5.7,0.6-8.2,1.8C14.6,17.8,11,22,9.4,27c-2,6.4-0.8,13.9,3.4,21.6C19.1,60.3,30.1,69.2,50,85.2  c19.9-16,30.9-25,37.1-36.5c4.2-7.8,5.4-15.3,3.4-21.7C89,22,85.4,17.8,80.5,15.5c-2.5-1.2-5.3-1.8-8.2-1.8c-8,0-15.4,4.6-18.4,11.5  c-0.7,1.6-2.2,2.6-3.9,2.6c-1.7,0-3.2-1-3.9-2.6C43.1,18.2,35.7,13.6,27.7,13.6z"></path></svg>