<svg xmlns="http://www.w3.org/2000/svg" id="icon-phone-full" viewBox="0 0 140 140"><path d="M134.8,98.6c-4.2-2.5-25.8-15.4-29.8-17.2c-7-2.9-11.9,1.7-14.6,4.1l-0.6,0.4c-1.5,1.5-4.1,3.6-5.9,5.2  c-1.7-0.6-5.2-2.4-12-7.6c-8.1-6.3-18.1-19-21.4-23.8c-1-1.4-1.5-2.9-1.8-4.2c1.4-1.3,3.4-3.2,5.3-5.3c5.7-6,4.2-12.3,4.1-13  l-0.4-1.3l-11.2-21C41.4,4.1,37.9,0.1,33.6,0c-1.3,0-2.4,0.3-3.4,1c-5.2,2.1-9.4,5.9-12.5,9c-0.6,0.6-1.4,1.3-2.4,2.2  C9.5,17.6,3.5,23.4,1.3,28.3c-3.1,6.6,0.6,20.4,2.2,26c0,0.1,0,0.1,0.1,0.3c8.7,24.8,29,45.1,29.8,45.8c19.5,20.7,40,34,59.1,38.2  c4.2,1,7.8,1.4,10.9,1.4c9.7,0,13.9-3.9,15.4-6.2c2.5-2.4,14.6-14.3,18.5-18.9c2.9-3.5,3.1-6.9,2.8-9  C139.3,101.5,135.7,99.1,134.8,98.6L134.8,98.6z"></path></svg>