<svg xmlns="http://www.w3.org/2000/svg" viewBox="0 0 18.02 16.29">
	<path d="M9.9,0a0.75,0.75,0,0,0,0,1.49A7,7,0,1,1,3.27,9.44L3.77,10a0.69,0.69,0,0,0,1,0l0,0a0.77,0.77,0,0,0,0-1.06L3,7A0.69,0.69,0,0,0,2,7L2,7,0.21,8.9A0.77,0.77,0,0,0,.21,10a0.69,0.69,0,0,0,1,0l0,0,0.6-.63A8.15,8.15,0,1,0,9.9,0Zm3,3.51a0.71,0.71,0,1,1-.67.74v0a0.69,0.69,0,0,1,.67-0.71h0Zm1.34,4a0.7,0.7,0,1,1-.67.74v0a0.69,0.69,0,0,1,.67-0.71h0Zm-1.34,3.87a0.7,0.7,0,1,1-.67.73v0a0.69,0.69,0,0,1,.67-0.7h0ZM9.79,13.48a0.7,0.7,0,1,1-.67.73v0a0.69,0.69,0,0,1,.67-0.7h0Zm-2.59-.84a0.74,0.74,0,0,1-.54-0.23,0.82,0.82,0,0,1,0-1.12L9,8.81v-5a0.76,0.76,0,1,1,1.51,0V9.13a0.81,0.81,0,0,1-.22.56L7.74,12.4a0.74,0.74,0,0,1-.53.23h0Z"/>
</svg>