<svg xmlns="http://www.w3.org/2000/svg" id="icon-compare" viewBox="0 0 100 100"><path d="M99.8,48L86.2,16.1c-0.3-0.7-1-1.2-1.8-1.4c-0.5-0.1-1.2,0.1-1.7,0.4c-6,2.3-11.5,3-16.8,3c-5,0-9.4-1.6-13.6-4.6V9.1  c0-1.3-1-2.3-2.2-2.3c-0.1,0-0.2,0-0.3,0c-1.2,0.1-2.1,1.1-2,2.3v4.5c-4.2,2.9-8.7,4.6-13.6,4.6c-5.2,0-10.8-0.7-16.8-3  c-0.5-0.3-1.2-0.5-1.7-0.4c-0.8,0.1-1.5,0.6-1.8,1.4L0.2,48C-0.1,48.5,0,48.9,0,49.3c0.2,8.6,7.2,15.5,15.9,15.5  c8.6,0,15.5-6.9,15.9-15.5c0-0.5,0-1-0.1-1.3L20,20.8c5,1.4,9.7,1.9,14.1,1.9c4.9,0,9.5-1.4,13.6-3.8v60.7H25v13.7h50V79.6H52.3  V18.9c4.2,2.4,8.7,3.8,13.6,3.8c4.4,0,9.1-0.5,14.1-1.9L68.4,48c-0.2,0.4-0.2,0.9-0.1,1.3c0.3,8.6,7.2,15.5,15.9,15.5  c8.6,0,15.7-6.9,15.9-15.5C100,48.9,100.1,48.5,99.8,48z M26.1,46.6H5.7l10.2-23.8L26.1,46.6z M73.9,46.6l10.2-23.8l10.2,23.8H73.9z  "></path></svg>