<svg xmlns="http://www.w3.org/2000/svg" xmlns:xlink="http://www.w3.org/1999/xlink" preserveAspectRatio="xMidYMid" width="33" height="26" viewBox="0 0 33 26">
  <defs>
    <style>
      .cls-1 {
        fill: #ffd178;
        fill-rule: evenodd;
      }
    </style>
  </defs>
  <path d="M7.182,0.000 C7.936,-0.009 8.400,0.317 8.738,0.724 C8.950,0.980 9.056,1.242 9.131,1.647 C9.360,2.889 8.312,3.421 7.779,4.047 C7.660,4.162 7.541,4.276 7.422,4.391 C7.422,4.397 7.422,4.402 7.422,4.407 C12.390,4.415 17.359,4.423 22.327,4.430 C24.304,4.674 25.765,4.887 27.158,5.684 C28.349,6.366 29.491,7.154 30.330,8.181 C31.010,9.015 31.714,9.966 32.127,11.043 C32.372,11.681 32.586,12.339 32.753,13.056 C32.827,13.606 32.901,14.156 32.974,14.706 C33.047,14.807 32.944,15.756 32.931,15.830 C32.837,16.379 32.840,16.832 32.753,17.331 C32.502,18.783 31.868,20.096 31.164,21.144 C29.629,23.429 27.325,25.050 24.203,25.775 C22.747,26.113 20.868,25.970 19.145,25.970 C16.058,25.970 12.970,25.970 9.882,25.970 C8.073,25.970 6.264,25.970 4.455,25.970 C3.636,25.970 2.626,26.067 2.018,25.837 C1.460,25.626 0.941,25.109 0.841,24.456 C0.688,23.458 1.188,22.666 1.856,22.384 C2.575,22.082 3.804,22.173 4.827,22.173 C6.776,22.173 8.725,22.173 10.674,22.173 C13.544,22.173 16.416,22.173 19.287,22.173 C20.655,22.173 22.297,22.333 23.464,22.043 C26.488,21.292 28.631,19.268 29.077,15.992 C29.608,12.086 26.501,8.888 23.412,8.363 C22.540,8.215 21.461,8.227 20.414,8.227 C19.167,8.227 17.919,8.227 16.672,8.227 C14.315,8.227 11.958,8.227 9.602,8.227 C8.893,8.226 8.184,8.225 7.475,8.224 C7.458,8.236 7.440,8.248 7.422,8.259 C7.961,8.946 8.814,9.404 9.253,10.182 C9.981,11.477 8.784,13.367 7.202,12.959 C6.304,12.728 5.392,11.724 4.854,11.098 C4.357,10.608 3.860,10.117 3.363,9.627 C2.637,8.922 1.910,8.217 1.184,7.512 C1.031,7.344 0.161,6.385 -0.000,6.366 C-0.000,6.349 -0.000,6.331 -0.000,6.314 C0.330,5.992 0.659,5.671 0.989,5.349 C2.200,4.162 3.412,2.974 4.623,1.786 C5.051,1.269 5.780,0.516 6.380,0.189 C6.615,0.061 6.877,0.078 7.182,0.000 Z" class="cls-1"/>
</svg>
