<svg xmlns="http://www.w3.org/2000/svg" viewBox="0 0 16.97 19.04">
	<path d="M10.93,14.26a0.41,0.41,0,0,1-.05-0.58l0,0a0.44,0.44,0,0,1,.63,0h0l2.86,2.47a0.41,0.41,0,0,1,.06.58l0,0a0.49,0.49,0,0,1-.34.14,0.46,0.46,0,0,1-.29-0.12Zm-5.58-.64L2.48,16.09a0.41,0.41,0,0,0-.05.58l0,0a0.49,0.49,0,0,0,.34.14,0.46,0.46,0,0,0,.29-0.12l2.86-2.47A0.41,0.41,0,0,0,6,13.68l0,0a0.44,0.44,0,0,0-.63,0h0ZM16.75,8.23a1,1,0,0,1,.1.38v8.07A2.4,2.4,0,0,1,14.42,19h-12A2.4,2.4,0,0,1,0,16.68V8.59A0.67,0.67,0,0,1,.1,8.21,0.6,0.6,0,0,1,.37,7.93L2.07,6.7V4A1.93,1.93,0,0,1,4,2.12H9.81a0.41,0.41,0,0,1,.44.47,0.46,0.46,0,0,1-.46.4H4A1.06,1.06,0,0,0,3,4V9.65l5.46,3.88,5.46-3.88V7A0.35,0.35,0,0,1,14,6.78a0.13,0.13,0,0,1,0-.07,0.47,0.47,0,0,1,.63-0.09l1.85,1.32a1,1,0,0,1,.24.31h0Zm-2,.78,0.85-.61-0.85-.61V9ZM1.24,8.4L2.09,9V7.81ZM15.93,9.27L8.69,14.42l-0.07,0h0a0.09,0.09,0,0,1-.07,0H8.3l-0.07,0h0a0.14,0.14,0,0,1-.07,0L0.92,9.27V16.7a1.5,1.5,0,0,0,1.52,1.48h12A1.5,1.5,0,0,0,16,16.72h0V9.27h0Zm0.53-8a1.7,1.7,0,0,1,0,2.4l0,0-0.56.54h0L10.39,9.55a0.4,0.4,0,0,1-.27.12l-3,.4h0A0.47,0.47,0,0,1,6.75,10a0.43,0.43,0,0,1-.12-0.38L7,6.63a0.51,0.51,0,0,1,.12-0.26L12.67,1l0.56-.54a1.83,1.83,0,0,1,2.5,0l0.73,0.75h0ZM8.16,6.66L8.84,7.32l4.83-4.68L13,2Zm1,2.26L7.82,7.57,7.6,9.13ZM15,3.9l-0.68-.66L9.45,7.93l0.68,0.66Zm0.87-2-0.75-.73a0.9,0.9,0,0,0-1.24,0l-0.24.24,1,1h0l1,1,0.24-.23a0.83,0.83,0,0,0,0-1.18l0,0h0Z"/>
</svg>