<svg xmlns="http://www.w3.org/2000/svg" viewBox="0 0 27 24">
    <path d="M9.000,15.000 C9.000,15.000 9.000,11.000 9.000,11.000 C9.000,11.000 26.000,11.000 26.000,11.000 C26.000,11.000 26.000,15.000 26.000,15.000 C26.000,15.000 9.000,15.000 9.000,15.000 ZM-0.000,15.000 C-0.000,15.000 -0.000,14.000 -0.000,14.000 C-0.000,14.000 5.000,14.000 5.000,14.000 C5.000,14.000 7.009,11.000 7.009,11.000 C7.009,11.000 7.000,11.000 7.000,11.000 C7.000,11.000 7.000,4.000 7.000,4.000 C7.000,4.000 8.000,4.000 8.000,4.000 C8.000,4.000 8.000,11.000 8.000,11.000 C8.000,11.000 5.229,15.000 5.229,15.000 C5.229,15.000 -0.000,15.000 -0.000,15.000 Z"/>
    <path d="M24.950,20.000 C24.973,20.165 25.000,20.329 25.000,20.500 C25.000,22.433 23.433,24.000 21.500,24.000 C19.567,24.000 18.000,22.433 18.000,20.500 C18.000,20.329 18.027,20.165 18.050,20.000 C18.050,20.000 9.950,20.000 9.950,20.000 C9.973,20.165 10.000,20.329 10.000,20.500 C10.000,22.433 8.433,24.000 6.500,24.000 C4.567,24.000 3.000,22.433 3.000,20.500 C3.000,20.329 3.027,20.165 3.050,20.000 C3.050,20.000 -0.000,20.000 -0.000,20.000 C-0.000,20.000 -0.000,19.000 -0.000,19.000 C-0.000,19.000 -0.000,9.000 -0.000,9.000 C-0.000,9.000 5.000,4.000 5.000,4.000 C5.000,4.000 9.000,4.000 9.000,4.000 C9.000,4.000 9.000,2.000 9.000,2.000 C9.000,0.895 9.895,-0.000 11.000,-0.000 C11.000,-0.000 25.000,-0.000 25.000,-0.000 C26.105,-0.000 27.000,0.895 27.000,2.000 C27.000,2.000 27.000,9.000 27.000,9.000 C27.000,9.000 27.000,15.000 27.000,15.000 C27.000,15.000 27.000,19.000 27.000,19.000 C27.000,19.000 27.000,20.000 27.000,20.000 C27.000,20.000 24.950,20.000 24.950,20.000 ZM21.500,23.000 C22.878,23.000 24.000,21.878 24.000,20.500 C24.000,19.121 22.878,18.000 21.500,18.000 C20.121,18.000 19.000,19.121 19.000,20.500 C19.000,21.878 20.121,23.000 21.500,23.000 ZM6.500,23.000 C7.878,23.000 9.000,21.878 9.000,20.500 C9.000,19.121 7.878,18.000 6.500,18.000 C5.121,18.000 4.000,19.121 4.000,20.500 C4.000,21.878 5.121,23.000 6.500,23.000 ZM26.000,9.000 C26.000,9.000 26.000,2.000 26.000,2.000 C26.000,1.449 25.551,1.000 25.000,1.000 C25.000,1.000 11.000,1.000 11.000,1.000 C10.449,1.000 10.000,1.449 10.000,2.000 C10.000,2.000 10.000,14.000 10.000,14.000 C10.000,14.000 26.000,14.000 26.000,14.000 C26.000,14.000 26.000,9.000 26.000,9.000 ZM26.000,15.000 C26.000,15.000 9.000,15.000 9.000,15.000 C9.000,15.000 9.000,5.000 9.000,5.000 C9.000,5.000 5.000,5.000 5.000,5.000 C5.000,5.000 1.000,9.000 1.000,9.000 C1.000,9.000 1.000,19.000 1.000,19.000 C1.000,19.000 3.350,19.000 3.350,19.000 C3.913,17.821 5.106,17.000 6.500,17.000 C7.894,17.000 9.087,17.821 9.650,19.000 C9.650,19.000 18.350,19.000 18.350,19.000 C18.913,17.821 20.106,17.000 21.500,17.000 C22.894,17.000 24.087,17.821 24.650,19.000 C24.650,19.000 26.000,19.000 26.000,19.000 C26.000,19.000 26.000,15.000 26.000,15.000 Z"/>
</svg>
