<?xml version="1.0" encoding="utf-8"?>
<svg version="1.0" xmlns="http://www.w3.org/2000/svg" xmlns:xlink="http://www.w3.org/1999/xlink" id="icon_vk" viewBox="0 0 100 100"><path d="M88.7,47.4c1.4-1.8,2.6-3.3,3.4-4.3c6-7.8,8.6-12.8,7.8-15l-0.3-0.5c-0.2-0.3-0.7-0.6-1.6-0.8  c-0.9-0.3-2-0.3-3.3-0.1l-15,0.1c-0.3,0-0.7,0-1,0c-0.3,0.1-0.6,0.1-0.7,0.2s-0.2,0.1-0.3,0.1l-0.2,0.2c-0.2,0.1-0.4,0.3-0.6,0.5  c-0.2,0.3-0.4,0.6-0.5,0.9c-1.6,4.1-3.5,8-5.6,11.5c-1.3,2.1-2.5,3.9-3.5,5.5c-1.1,1.6-2,2.7-2.7,3.4s-1.4,1.3-2,1.8  c-0.6,0.4-1,0.6-1.4,0.6c-0.3-0.1-0.6-0.1-0.9-0.2c-0.5-0.3-0.9-0.7-1.2-1.3c-0.3-0.5-0.5-1.2-0.6-2s-0.2-1.5-0.2-2.1s0-1.4,0-2.5  s0.1-1.8,0.1-2.1c0-1.3,0-2.7,0.1-4.2s0.1-2.7,0.1-3.6c0-0.9,0.1-1.8,0.1-2.8s-0.1-1.8-0.2-2.3c-0.1-0.6-0.3-1.1-0.5-1.6  s-0.6-0.9-1.1-1.2c-0.5-0.3-1-0.5-1.7-0.7c-1.8-0.4-4.2-0.6-7-0.7c-6.5-0.1-10.6,0.3-12.4,1.2c-0.7,0.4-1.4,0.9-2,1.5  c-0.6,0.8-0.7,1.2-0.3,1.2c2.1,0.3,3.6,1,4.4,2.2l0.3,0.6c0.2,0.4,0.5,1.2,0.7,2.4c0.2,1.1,0.4,2.4,0.5,3.7c0.2,2.5,0.2,4.6,0,6.4  c-0.2,1.8-0.3,3.2-0.5,4.1c-0.2,1-0.4,1.8-0.7,2.4c-0.3,0.6-0.5,1-0.6,1.1s-0.2,0.2-0.3,0.3c-0.5,0.2-0.9,0.3-1.4,0.3  s-1.1-0.2-1.8-0.7s-1.4-1.1-2.2-2c-0.7-0.8-1.6-2-2.5-3.5s-1.9-3.3-2.9-5.3l-0.8-1.5c-0.5-1-1.2-2.3-2.1-4.2  c-0.9-1.8-1.7-3.6-2.4-5.3c-0.3-0.7-0.7-1.3-1.2-1.6l-0.3-0.2c-0.2-0.1-0.5-0.3-0.8-0.4c-0.4-0.2-0.8-0.3-1.2-0.3l-14.4,0  c-1.5,0-2.4,0.3-3,1l-0.2,0.3C0.1,28,0,28.3,0,28.7C0,29,0.1,29.5,0.3,30c2.1,4.8,4.3,9.4,6.8,13.9c2.4,4.5,4.6,8.1,6.4,10.8  s3.6,5.3,5.5,7.7s3.1,4,3.7,4.6c0.6,0.7,1.1,1.2,1.4,1.5l1.3,1.2c0.8,0.8,2.1,1.8,3.7,2.9s3.4,2.3,5.4,3.4s4.2,2,6.8,2.7  s5.1,1,7.6,0.8h6c1.2-0.1,2.1-0.5,2.8-1.1l0.2-0.3c0.1-0.2,0.3-0.5,0.4-0.9c0.1-0.4,0.2-0.9,0.2-1.4c0-1.5,0.1-2.8,0.3-4  c0.3-1.2,0.6-2.1,0.9-2.7c0.3-0.6,0.7-1.1,1.1-1.5c0.4-0.4,0.7-0.7,0.9-0.7c0.2-0.1,0.3-0.1,0.4-0.2c0.8-0.3,1.8,0,2.9,0.8  c1.1,0.8,2.2,1.8,3.2,3s2.2,2.5,3.6,4s2.6,2.6,3.6,3.3l1,0.6c0.7,0.4,1.6,0.8,2.7,1.1c1.1,0.3,2.1,0.4,2.9,0.3l13.3-0.2  c1.3,0,2.3-0.2,3.1-0.6c0.7-0.4,1.2-0.9,1.3-1.4c0.1-0.5,0.1-1.1,0-1.7s-0.2-1.1-0.4-1.4c-0.1-0.3-0.2-0.5-0.3-0.6  c-1.7-3.1-5.1-6.8-9.9-11.3L89,62.5l0,0h-0.1h-0.1c-2.2-2.1-3.6-3.5-4.2-4.2c-1.1-1.4-1.3-2.7-0.7-4.1C84.4,53.1,86,50.8,88.7,47.4z  "></path></svg>