<svg xmlns="http://www.w3.org/2000/svg" xmlns:xlink="http://www.w3.org/1999/xlink" preserveAspectRatio="xMidYMid" width="50" height="50" viewBox="0 0 50 50">
  <defs>
    <style>
      .cls-1 {
        fill: #fff;
        fill-rule: evenodd;
      }
    </style>
  </defs>
  <path d="M49.000,26.000 L26.000,26.000 L26.000,49.000 C26.000,49.552 25.552,50.000 25.000,50.000 C24.448,50.000 24.000,49.552 24.000,49.000 L24.000,26.000 L1.000,26.000 C0.448,26.000 -0.000,25.552 -0.000,25.000 C-0.000,24.448 0.448,24.000 1.000,24.000 L24.000,24.000 L24.000,1.000 C24.000,0.448 24.448,-0.000 25.000,-0.000 C25.552,-0.000 26.000,0.448 26.000,1.000 L26.000,24.000 L49.000,24.000 C49.552,24.000 50.000,24.448 50.000,25.000 C50.000,25.552 49.552,26.000 49.000,26.000 Z" class="cls-1"/>
</svg>
