<?xml version="1.0" encoding="utf-8"?>
<svg version="1.0" xmlns="http://www.w3.org/2000/svg" xmlns:xlink="http://www.w3.org/1999/xlink" id="icon_google_plus" viewBox="0 0 100 100"><path d="M0.1,48.4c0.3-16.4,15.3-30.7,31.7-30.1c7.8-0.4,15.2,3,21.2,7.8c-2.6,2.9-5.2,5.7-8,8.3   c-7.2-5-17.5-6.4-24.7-0.7c-10.3,7.1-10.8,24-0.9,31.7c9.7,8.8,27.9,4.4,30.6-9c-6-0.1-12.1,0-18.2-0.2c0-3.6,0-7.2,0-10.8   c10.1,0,20.2,0,30.3,0C62.7,54,61.6,63,56.4,70c-7.9,11.1-23.8,14.4-36.1,9.6C7.8,74.9-0.9,61.8,0.1,48.4z"></path><path d="M81.8,36.3c3,0,6,0,9,0c0,3,0,6,0.1,9.1c3,0,6,0,9.1,0.1c0,3,0,6,0,9c-3,0-6,0-9.1,0.1c0,3,0,6-0.1,9.1   c-3,0-6,0-9,0c0-3,0-6-0.1-9c-3,0-6-0.1-9.1-0.1c0-3,0-6,0-9c3,0,6,0,9.1-0.1C81.8,42.4,81.8,39.4,81.8,36.3z"></path></svg>