<svg xmlns="http://www.w3.org/2000/svg" xmlns:xlink="http://www.w3.org/1999/xlink" preserveAspectRatio="xMidYMid" width="18" height="19" viewBox="0 0 18 19">
  <defs>
    <style>
      .cls-1 {
        fill: #cbcbcb;
        fill-rule: evenodd;
      }
    </style>
  </defs>
  <path d="M17.999,9.494 C17.999,9.451 17.994,9.408 17.985,9.365 C17.981,9.342 17.972,9.321 17.965,9.299 C17.959,9.278 17.954,9.257 17.945,9.236 C17.934,9.209 17.919,9.185 17.904,9.159 C17.896,9.146 17.890,9.131 17.881,9.117 C17.854,9.078 17.824,9.042 17.790,9.009 L14.113,5.420 C13.837,5.150 13.388,5.150 13.111,5.420 C12.833,5.690 12.833,6.128 13.111,6.399 L15.579,8.808 L6.345,8.808 C5.954,8.808 5.636,9.118 5.636,9.500 C5.636,9.882 5.954,10.192 6.345,10.192 L15.579,10.192 L13.110,12.601 C12.833,12.871 12.833,13.309 13.110,13.580 C13.248,13.715 13.430,13.782 13.612,13.782 C13.793,13.782 13.974,13.715 14.113,13.580 L17.792,9.990 C17.795,9.986 17.797,9.983 17.800,9.979 C17.829,9.950 17.856,9.919 17.880,9.884 C17.893,9.865 17.902,9.844 17.913,9.824 C17.924,9.805 17.936,9.786 17.945,9.766 C17.955,9.741 17.962,9.715 17.969,9.689 C17.974,9.672 17.981,9.655 17.985,9.636 C17.995,9.591 17.999,9.546 17.999,9.500 C17.999,9.500 17.999,9.500 17.999,9.500 C17.999,9.498 17.999,9.496 17.999,9.494 ZM11.104,11.683 C10.713,11.683 10.395,11.993 10.395,12.375 L10.395,17.244 C10.395,17.449 10.224,17.616 10.013,17.616 L1.800,17.616 C1.589,17.616 1.418,17.449 1.418,17.244 L1.418,1.756 C1.418,1.551 1.589,1.384 1.800,1.384 L10.013,1.384 C10.224,1.384 10.395,1.551 10.395,1.756 L10.395,6.483 C10.395,6.865 10.713,7.175 11.104,7.175 C11.496,7.175 11.813,6.865 11.813,6.483 L11.813,1.756 C11.813,0.787 11.006,-0.001 10.013,-0.001 L1.800,-0.001 C0.807,-0.001 -0.000,0.787 -0.000,1.756 L-0.000,17.244 C-0.000,18.212 0.807,19.000 1.800,19.000 L10.013,19.000 C11.006,19.000 11.813,18.212 11.813,17.244 L11.813,12.375 C11.813,11.993 11.496,11.683 11.104,11.683 Z" class="cls-1"/>
</svg>
