<svg xmlns="http://www.w3.org/2000/svg" width="19" height="19" viewBox="0 0 19 19">
  <path d="M2.488,0.063 C2.719,0.017 2.954,0.004 3.189,0.001 C6.926,0.002 10.662,0.001 14.399,0.001 C14.890,0.003 15.388,-0.024 15.869,0.097 C17.158,0.401 18.165,1.620 18.190,2.948 C18.189,4.616 18.191,6.284 18.189,7.952 C18.188,8.310 17.827,8.600 17.478,8.559 C17.141,8.552 16.861,8.241 16.858,7.910 C16.849,6.259 16.860,4.607 16.853,2.956 C16.809,2.056 15.973,1.313 15.078,1.336 C11.066,1.337 7.053,1.331 3.040,1.340 C2.153,1.348 1.355,2.118 1.337,3.009 C1.335,7.283 1.338,11.557 1.336,15.831 C1.263,16.781 2.095,17.673 3.050,17.665 C4.939,17.665 6.827,17.663 8.716,17.665 C9.035,17.667 9.326,17.925 9.359,18.244 C9.421,18.619 9.101,19.008 8.716,18.998 C6.808,19.000 4.899,18.998 2.991,18.999 C2.072,18.984 1.173,18.523 0.623,17.787 C0.240,17.287 0.015,16.665 0.001,16.035 C0.002,11.671 -0.000,7.308 0.001,2.945 C0.034,1.562 1.125,0.299 2.488,0.063 M6.542,2.695 C6.709,2.440 7.061,2.352 7.339,2.460 C7.711,2.598 7.881,3.088 7.664,3.424 C7.084,4.334 6.496,5.238 5.913,6.146 C5.721,6.467 5.250,6.558 4.953,6.330 C4.454,5.959 3.957,5.587 3.461,5.212 C3.054,4.922 3.164,4.216 3.638,4.060 C3.859,3.977 4.119,4.019 4.302,4.168 C4.591,4.384 4.883,4.601 5.170,4.821 C5.629,4.114 6.083,3.402 6.542,2.695 M9.288,4.051 C9.386,4.019 9.489,4.020 9.591,4.020 C11.173,4.024 12.757,4.019 14.339,4.021 C14.716,4.015 15.032,4.384 14.984,4.754 C14.957,5.100 14.629,5.382 14.282,5.355 C12.692,5.355 11.101,5.356 9.511,5.355 C9.194,5.371 8.895,5.127 8.840,4.816 C8.769,4.496 8.973,4.143 9.288,4.051 M6.518,7.550 C6.624,7.373 6.814,7.250 7.021,7.234 C7.351,7.191 7.687,7.431 7.745,7.760 C7.794,7.952 7.730,8.155 7.620,8.315 C7.042,9.204 6.472,10.100 5.893,10.989 C5.688,11.294 5.225,11.368 4.938,11.136 C4.443,10.767 3.948,10.395 3.453,10.024 C3.154,9.793 3.122,9.297 3.399,9.036 C3.624,8.792 4.039,8.769 4.295,8.978 C4.588,9.197 4.880,9.418 5.173,9.636 C5.619,8.940 6.067,8.244 6.518,7.550 M13.636,9.684 C14.546,9.557 15.497,9.685 16.327,10.086 C17.299,10.544 18.104,11.350 18.556,12.325 C19.136,13.535 19.142,14.999 18.598,16.224 C18.185,17.147 17.470,17.933 16.581,18.417 C15.700,18.906 14.657,19.096 13.661,18.952 C12.599,18.809 11.597,18.281 10.873,17.493 C10.196,16.758 9.756,15.803 9.660,14.808 C9.505,13.433 10.001,11.993 10.991,11.022 C11.692,10.300 12.640,9.826 13.636,9.684 M13.773,11.016 C12.923,11.154 12.139,11.637 11.630,12.329 C11.182,12.926 10.948,13.678 10.969,14.423 C10.999,15.277 11.368,16.113 11.983,16.708 C12.697,17.410 13.738,17.771 14.734,17.635 C15.600,17.527 16.416,17.063 16.950,16.373 C17.410,15.786 17.673,15.042 17.658,14.295 C17.672,13.183 17.056,12.102 16.124,11.506 C15.436,11.059 14.581,10.879 13.773,11.016 M6.523,12.356 C6.694,12.074 7.082,11.960 7.377,12.109 C7.739,12.267 7.876,12.769 7.645,13.089 C7.059,13.996 6.478,14.907 5.888,15.811 C5.691,16.116 5.230,16.171 4.947,15.957 C4.445,15.586 3.945,15.211 3.447,14.833 C3.084,14.558 3.149,13.928 3.558,13.728 C3.788,13.607 4.081,13.630 4.288,13.789 C4.583,14.007 4.874,14.231 5.170,14.450 C5.626,13.755 6.070,13.052 6.523,12.356 M13.652,12.686 C13.642,12.306 14.027,11.990 14.399,12.046 C14.714,12.078 14.979,12.362 14.984,12.679 C14.991,13.001 14.983,13.322 14.987,13.644 C15.360,13.662 15.740,13.609 16.109,13.675 C16.518,13.773 16.722,14.297 16.503,14.652 C16.396,14.850 16.172,14.980 15.946,14.979 C15.405,14.985 14.863,14.968 14.322,14.990 C13.953,15.011 13.618,14.676 13.640,14.308 C13.662,13.768 13.645,13.227 13.652,12.686 L13.652,12.686 Z"/>
</svg>
