<svg xmlns="http://www.w3.org/2000/svg" xmlns:xlink="http://www.w3.org/1999/xlink" preserveAspectRatio="xMidYMid" width="71" height="60" viewBox="0 0 71 60">
  <defs>
    <style>
      .cls-1 {
        fill: #000;
        opacity: 0.1;
        fill-rule: evenodd;
      }
    </style>
  </defs>
  <path d="M68.613,57.620 C67.020,59.211 65.087,60.007 62.809,60.007 L46.424,60.007 C44.148,60.007 42.214,59.211 40.621,57.620 C39.028,56.029 38.232,54.097 38.232,51.823 L38.232,21.816 C38.232,18.861 38.808,16.041 39.960,13.355 C41.112,10.670 42.670,8.347 44.633,6.387 C46.596,4.426 48.921,2.870 51.609,1.719 C54.298,0.569 57.120,-0.007 60.080,-0.007 L62.811,-0.007 C63.550,-0.007 64.190,0.263 64.731,0.803 C65.271,1.343 65.542,1.982 65.542,2.721 L65.542,8.177 C65.542,8.916 65.271,9.555 64.731,10.095 C64.190,10.635 63.550,10.905 62.811,10.905 L60.080,10.905 C57.064,10.905 54.489,11.971 52.356,14.101 C50.223,16.233 49.157,18.804 49.157,21.816 L49.157,23.180 C49.157,24.317 49.555,25.283 50.351,26.079 C51.147,26.874 52.115,27.272 53.252,27.272 L62.811,27.272 C65.087,27.272 67.021,28.068 68.614,29.659 C70.206,31.250 71.002,33.182 71.002,35.456 L71.002,51.823 C71.002,54.097 70.206,56.029 68.613,57.620 ZM24.577,60.007 L8.191,60.007 C5.915,60.007 3.980,59.211 2.387,57.620 C0.794,56.029 -0.002,54.097 -0.002,51.823 L-0.002,21.816 C-0.002,18.861 0.574,16.041 1.726,13.355 C2.878,10.670 4.435,8.347 6.398,6.387 C8.361,4.426 10.687,2.870 13.375,1.719 C16.064,0.569 18.886,-0.007 21.845,-0.007 L24.576,-0.007 C25.316,-0.007 25.955,0.263 26.496,0.803 C27.036,1.343 27.307,1.982 27.307,2.721 L27.307,8.177 C27.307,8.916 27.036,9.555 26.496,10.095 C25.955,10.635 25.316,10.905 24.576,10.905 L21.845,10.905 C18.830,10.905 16.255,11.971 14.122,14.101 C11.988,16.233 10.921,18.804 10.921,21.816 L10.921,23.180 C10.921,24.317 11.320,25.283 12.116,26.079 C12.912,26.874 13.880,27.272 15.018,27.272 L24.576,27.272 C26.852,27.272 28.786,28.068 30.379,29.659 C31.973,31.250 32.769,33.182 32.769,35.456 L32.769,51.823 C32.769,54.097 31.973,56.029 30.380,57.620 C28.787,59.211 26.853,60.007 24.577,60.007 Z" class="cls-1"/>
</svg>
