<svg xmlns="http://www.w3.org/2000/svg" xmlns:xlink="http://www.w3.org/1999/xlink" preserveAspectRatio="xMidYMid" width="14.97" height="13.969" viewBox="0 0 14.97 13.969">
  <defs>
    <style>
      .cls-1 {
        fill: #000;
        opacity: 0.2;
        fill-rule: evenodd;
      }
    </style>
  </defs>
  <path d="M11.095,13.969 C8.699,13.969 6.302,13.969 3.906,13.969 C3.906,13.954 3.906,13.939 3.906,13.923 C3.209,13.804 2.778,13.356 2.642,12.689 C2.609,12.526 2.680,11.907 2.596,11.825 C2.530,11.762 1.544,11.821 1.359,11.797 C0.603,11.702 0.258,11.283 0.046,10.652 C0.031,10.652 0.015,10.652 -0.000,10.652 C-0.000,8.938 -0.000,7.224 -0.000,5.510 C0.081,5.510 0.080,5.405 0.093,5.342 C0.178,4.928 0.678,4.518 1.081,4.404 C1.387,4.317 1.821,4.349 2.203,4.349 C2.326,4.349 2.449,4.348 2.572,4.348 C2.601,4.337 2.619,4.303 2.626,4.270 C2.627,4.040 2.628,3.811 2.629,3.581 C2.629,3.128 2.629,2.674 2.629,2.221 C2.629,1.633 2.596,1.050 2.835,0.702 C3.045,0.396 3.328,0.137 3.736,0.026 C3.922,-0.025 4.165,-0.014 4.395,-0.014 C4.728,-0.014 5.062,-0.014 5.395,-0.014 C6.679,-0.014 7.964,-0.014 9.248,-0.014 C9.990,-0.014 10.949,-0.100 11.496,0.111 C11.895,0.264 12.232,0.672 12.333,1.116 C12.385,1.343 12.360,1.638 12.360,1.900 C12.360,2.393 12.360,2.887 12.360,3.380 C12.363,3.685 12.366,3.991 12.369,4.296 C12.406,4.395 13.407,4.332 13.604,4.357 C14.236,4.435 14.603,4.733 14.846,5.187 C15.028,5.527 14.979,6.127 14.979,6.640 C14.979,7.470 14.979,8.301 14.979,9.131 C14.979,9.594 15.040,10.262 14.953,10.669 C14.881,11.006 14.674,11.282 14.447,11.473 C14.106,11.761 13.674,11.808 13.020,11.808 C12.827,11.809 12.633,11.810 12.440,11.811 C12.421,11.820 12.403,11.829 12.384,11.839 C12.316,11.924 12.377,12.295 12.360,12.447 C12.347,12.582 12.334,12.718 12.321,12.854 C12.155,13.407 11.730,13.829 11.095,13.923 C11.095,13.939 11.095,13.954 11.095,13.969 ZM10.726,1.443 C9.100,1.445 7.473,1.446 5.846,1.448 C5.625,1.448 4.223,1.415 4.156,1.465 C4.099,1.508 4.124,2.880 4.124,3.093 C4.124,3.374 4.124,3.654 4.124,3.935 C4.128,4.033 4.133,4.131 4.138,4.229 C4.173,4.303 5.208,4.274 5.404,4.274 C6.742,4.274 8.081,4.274 9.420,4.274 C9.641,4.274 10.816,4.306 10.852,4.226 C10.855,3.345 10.860,2.465 10.864,1.585 C10.864,1.476 10.837,1.442 10.726,1.443 ZM13.345,5.807 C10.419,5.808 7.491,5.809 4.565,5.811 C3.771,5.811 2.977,5.811 2.183,5.811 C2.058,5.811 1.617,5.778 1.548,5.824 C1.473,5.874 1.506,6.686 1.506,6.867 C1.508,8.008 1.509,9.148 1.512,10.289 C1.524,10.323 1.552,10.341 1.593,10.347 C1.725,10.367 2.547,10.367 2.594,10.331 C2.735,10.224 2.519,8.436 2.691,8.385 C5.881,8.382 9.073,8.380 12.264,8.378 C12.313,8.383 12.345,8.404 12.357,8.445 C12.358,8.954 12.359,9.463 12.360,9.971 C12.360,10.073 12.331,10.256 12.381,10.315 C12.408,10.347 13.305,10.374 13.410,10.347 C13.526,10.318 13.482,9.552 13.482,9.360 C13.482,8.240 13.482,7.120 13.482,6.000 C13.482,5.875 13.480,5.805 13.345,5.807 ZM11.972,6.353 C12.960,6.342 12.998,7.709 12.030,7.813 C11.287,7.893 11.017,6.916 11.531,6.509 C11.653,6.412 11.785,6.397 11.972,6.353 ZM10.726,9.656 C9.090,9.657 7.453,9.657 5.816,9.659 C5.607,9.659 4.195,9.637 4.148,9.683 C4.101,9.731 4.124,11.118 4.124,11.326 C4.128,11.697 4.132,12.067 4.136,12.438 C4.171,12.517 5.356,12.487 5.571,12.487 C6.909,12.487 8.248,12.487 9.587,12.487 C9.788,12.487 10.815,12.516 10.850,12.441 C10.855,11.559 10.859,10.677 10.864,9.795 C10.864,9.688 10.837,9.655 10.726,9.656 Z" class="cls-1"/>
</svg>
