<svg xmlns="http://www.w3.org/2000/svg" xmlns:xlink="http://www.w3.org/1999/xlink" preserveAspectRatio="xMidYMid" width="21.03" height="21" viewBox="0 0 21.03 21">
  <defs>
    <style>
      .cls-1 {
        fill: #cbcbcb;
        fill-rule: evenodd;
      }
    </style>
  </defs>
  <path d="M10.502,-0.002 C7.698,-0.002 5.061,1.090 3.077,3.072 C1.094,5.055 0.001,7.693 0.001,10.498 C-0.000,13.303 1.091,15.940 3.075,17.923 C5.059,19.906 7.696,20.997 10.500,20.997 C13.307,20.997 15.945,19.905 17.929,17.921 C22.024,13.828 22.022,7.167 17.929,3.072 C15.945,1.090 13.308,-0.002 10.502,-0.002 ZM10.502,1.781 C12.830,1.781 15.020,2.688 16.668,4.333 C20.066,7.732 20.066,13.262 16.668,16.661 C15.020,18.308 12.830,19.214 10.500,19.214 C8.172,19.214 5.982,18.309 4.336,16.663 C2.691,15.017 1.785,12.827 1.785,10.498 C1.785,8.169 2.692,5.980 4.338,4.333 C5.984,2.688 8.174,1.781 10.502,1.781 ZM8.020,7.125 C7.792,7.125 7.564,7.212 7.390,7.386 C7.041,7.735 7.041,8.298 7.390,8.647 L9.242,10.499 L7.390,12.350 C7.041,12.699 7.041,13.263 7.390,13.611 C7.564,13.785 7.792,13.872 8.020,13.872 C8.248,13.872 8.477,13.785 8.651,13.611 L10.503,11.759 L12.355,13.611 C12.529,13.785 12.757,13.872 12.985,13.872 C13.214,13.872 13.442,13.785 13.616,13.611 C13.965,13.263 13.965,12.699 13.616,12.350 L11.764,10.499 L13.616,8.647 C13.965,8.298 13.965,7.735 13.616,7.386 C13.267,7.037 12.704,7.037 12.355,7.386 L10.503,9.238 L8.651,7.386 C8.476,7.212 8.248,7.125 8.020,7.125 Z" class="cls-1"/>
</svg>
