<svg xmlns="http://www.w3.org/2000/svg" viewBox="0 0 45 62.25">
<path d="M33.86,20.34a1.56,1.56,0,0,0,.5-.49L44.75,2.63a1.73,1.73,0,1,0-3-1.77l-8.9,14.76-3.17-5.26,4.65-7.72a1.72,1.72,0,1,0-3-1.77h0L27.69,7,24,.87a1.73,1.73,0,1,0-3,1.77l9.78,16.2a22.25,22.25,0,0,0-7.28-1.54L13.6.87a1.73,1.73,0,0,0-3,1.72l0,.05,8.94,14.82a22.09,22.09,0,0,0-5.49,1.43L3.21.87a1.73,1.73,0,0,0-3,1.77h0L11,20.44a22.49,22.49,0,1,0,22.88-.1ZM22.49,58.58a18.95,18.95,0,1,1,19-18.95A18.94,18.94,0,0,1,22.49,58.58ZM28,31.71,18.84,43.9l-2-2a1.74,1.74,0,0,0-2.45,0,1.71,1.71,0,0,0,0,2.42h0l3.46,3.45a1.74,1.74,0,0,0,1.22.5h.13a1.77,1.77,0,0,0,1.26-.69L30.8,33.78a1.72,1.72,0,0,0-.33-2.4h0a1.75,1.75,0,0,0-2.42.34Z"/>
</svg>
