<svg xmlns="http://www.w3.org/2000/svg" id="icon-burger" viewBox="0 0 100 100"><path d="M7.5,28h85.3c3.9,0.1,7.2-3.2,7.2-7.2c0.1-4-3.1-7.4-7-7.4c-0.1,0-0.1,0-0.2,0H7.5c-0.2,0-0.5,0-0.7,0   C2.8,13.6-0.2,17,0,21.1C0.2,25.1,3.6,28.2,7.5,28z"></path><path d="M93,42.7c-0.1,0-0.1,0-0.2,0H7.5c-0.2,0-0.5,0-0.7,0c-3.9,0.2-6.9,3.7-6.7,7.7c0.2,4,3.6,7.2,7.5,6.9h85.3   c3.9,0.1,7.2-3.2,7.2-7.2C100.1,46.1,96.9,42.7,93,42.7z"></path><path d="M93,72c-0.1,0-0.1,0-0.2,0H7.5c-0.2,0-0.5,0-0.7,0c-3.9,0.2-6.9,3.7-6.7,7.7c0.2,4,3.6,7.2,7.5,6.9h85.3   c3.9,0.1,7.2-3.2,7.2-7.2C100.1,75.4,96.9,72,93,72z"></path></svg>