<svg xmlns="http://www.w3.org/2000/svg" width="15" height="15" viewBox="0 0 15 15">
  <path d="M7.500,3.750 C6.982,3.750 6.562,4.170 6.562,4.687 C6.562,5.205 6.982,5.625 7.500,5.625 C8.017,5.625 8.437,5.205 8.437,4.687 C8.437,4.169 8.018,3.750 7.500,3.750 ZM7.500,6.562 C6.982,6.562 6.562,6.982 6.562,7.500 L6.562,10.312 C6.562,10.830 6.982,11.250 7.500,11.250 C8.017,11.250 8.437,10.830 8.437,10.312 L8.437,7.500 C8.437,6.982 8.018,6.562 7.500,6.562 ZM7.500,-0.000 C3.365,-0.000 -0.000,3.365 -0.000,7.500 C-0.000,11.635 3.365,15.000 7.500,15.000 C11.635,15.000 15.000,11.635 15.000,7.500 C15.000,3.365 11.635,-0.000 7.500,-0.000 ZM7.500,13.594 C4.140,13.594 1.406,10.860 1.406,7.500 C1.406,4.140 4.140,1.406 7.500,1.406 C10.860,1.406 13.594,4.140 13.594,7.500 C13.594,10.860 10.860,13.594 7.500,13.594 Z"/>
</svg>
