<?xml version="1.0" encoding="utf-8"?>
<!-- Generator: Adobe Illustrator 23.0.0, SVG Export Plug-In . SVG Version: 6.00 Build 0)  -->
<svg version="1.1" id="icon-wrench" xmlns="http://www.w3.org/2000/svg" xmlns:xlink="http://www.w3.org/1999/xlink" viewBox="0 0 100.7 100.7">
<g>
	<g>
		<path d="M98.6,74.5c-0.8-2.7-2.3-5.1-4.3-7.1c-3.2-3.2-7.5-5-11.9-4.9c-2.3,0-4.6,0.5-6.7,1.4L59.2,47.2l22-21.9l5.2-0.1
			c0.6,0,1.2-0.4,1.5-0.9l7.5-12.6c0.4-0.7,0.3-1.7-0.3-2.2l-6.5-6.5c-0.6-0.6-1.5-0.7-2.2-0.3l-12.6,7.5c-0.5,0.3-0.9,0.9-0.9,1.5
			L72.8,17l-22,21.9L35.8,23.8C37.3,14.6,31.2,5.9,22,4.3c-4.3-0.7-8.6,0.2-12.2,2.6C8.9,7.5,8.7,8.6,9.3,9.5
			c0.2,0.2,0.4,0.4,0.6,0.6l8.4,4.7c1.8,1.1,2.2,4.2,0.7,6.8c-1.5,2.7-4.4,4-6.2,3L5,20.3c-0.9-0.5-2-0.2-2.5,0.7
			c-0.2,0.3-0.2,0.7-0.2,1c0.6,9.3,8.6,16.4,17.9,15.8c1.9-0.1,3.8-0.6,5.6-1.3l13.7,13.7l-5.9,5.9l-1.3-1.3c-1.5-1.4-3.8-1.4-5.3,0
			L25,56.7c-1.4,1.4-1.5,3.6-0.2,5.1L3,83.6c-1.5,1.4-1.5,3.7-0.1,5.2c0,0,0.1,0.1,0.1,0.1l6.2,6.2c1.4,1.5,3.7,1.5,5.2,0.1
			c0,0,0.1-0.1,0.1-0.1l21.8-21.8c1.5,1.3,3.7,1.2,5.1-0.2l1.8-1.8c1.5-1.4,1.5-3.7,0.1-5.2c0,0-0.1-0.1-0.1-0.1L42,64.6l5.9-6
			l17.9,17.9c-1.5,9.2,4.7,17.9,13.8,19.4c5.4,0.9,11-0.9,14.9-4.8c0.7-0.8,0.6-1.9-0.2-2.6c-0.2-0.2-0.4-0.3-0.7-0.4l-10.4-2.8
			c-1-0.3-1.8-1.1-2.2-2.1c-0.5-1.4-0.6-2.9-0.2-4.4c0.8-2.9,3.2-5,5.3-4.4l10.3,2.8c0.2,0,0.3,0,0.5,0c1,0,1.9-0.8,1.9-1.8
			C98.8,75,98.7,74.7,98.6,74.5z M75.9,19c0.3-0.3,0.5-0.8,0.5-1.3l0.1-4.9L87,6.6l4.4,4.4l-6.1,10.4l-5,0.2c-0.5,0-0.9,0.2-1.3,0.5
			L56.6,44.7l-3.2-3.2L75.9,19z M11.9,92.5l-6.3-6.3l21.9-21.9l3.2,3.2l3,3.1L11.9,92.5z M38.9,70.4l-2.4-2.5L35.5,67l-7.7-7.8
			l1.8-1.8l11.1,11.2L38.9,70.4z M39.3,62l-3.2-3.2l5.9-5.9l3.2,3.2L39.3,62z M87.1,70.8c-0.5-0.1-1.1-0.2-1.7-0.2
			c-4,0.3-7.3,3.3-8.1,7.2c-0.6,2.2-0.5,4.6,0.4,6.7c0.8,2.1,2.5,3.6,4.6,4.2l6.9,1.8c-6.3,3.7-14.3,1.7-18.1-4.6
			c-1.8-2.9-2.3-6.4-1.5-9.8c0.1-0.6,0-1.3-0.5-1.7L27.5,33c-0.6-0.6-1.5-0.7-2.2-0.3c-1.9,1-4,1.5-6.2,1.5
			c-5.5,0-10.5-3.5-12.4-8.7l4.2,2.3c1,0.5,2.1,0.8,3.2,0.8c3.4-0.2,6.5-2.2,8-5.2c2.5-4.5,1.5-9.8-2.2-11.9l-5.4-3
			c6.9-2.4,14.4,1.1,16.9,8c0.9,2.4,1,5,0.4,7.4c-0.1,0.6,0,1.3,0.5,1.7l41.7,41.6c0.6,0.6,1.4,0.7,2.2,0.3c1.9-1,4-1.5,6.2-1.5
			c4.7,0,9,2.5,11.4,6.5L87.1,70.8z"/>
	</g>
</g>
</svg>