<svg xmlns="http://www.w3.org/2000/svg" viewBox="0 0 21 21">
	<path d="M19.59,5.23a10.46,10.46,0,0,0-3.82-3.82A10.27,10.27,0,0,0,10.5,0,10.27,10.27,0,0,0,5.23,1.41,10.45,10.45,0,0,0,1.41,5.23,10.27,10.27,0,0,0,0,10.5a10.28,10.28,0,0,0,1.41,5.27,10.46,10.46,0,0,0,3.82,3.82A10.27,10.27,0,0,0,10.5,21a10.27,10.27,0,0,0,5.27-1.41,10.46,10.46,0,0,0,3.82-3.82A10.27,10.27,0,0,0,21,10.5,10.27,10.27,0,0,0,19.59,5.23Zm-1,8.67a8.63,8.63,0,0,1-4.66,4.66,8.63,8.63,0,0,1-6.8,0A8.63,8.63,0,0,1,2.45,13.9a8.63,8.63,0,0,1,0-6.8A8.63,8.63,0,0,1,7.1,2.45a8.63,8.63,0,0,1,6.8,0A8.63,8.63,0,0,1,18.56,7.1,8.62,8.62,0,0,1,18.56,13.9Zm-4.94-2.51a5.14,5.14,0,0,0-3.12-1,5.14,5.14,0,0,0-3.12,1A5,5,0,0,0,5.5,14.05a0.88,0.88,0,0,0,1.24,1,0.83,0.83,0,0,0,.43-0.52,3.49,3.49,0,0,1,3.34-2.45,3.49,3.49,0,0,1,3.34,2.45,0.83,0.83,0,0,0,.44.52,0.86,0.86,0,0,0,.67.05,0.87,0.87,0,0,0,.56-1.09A5.05,5.05,0,0,0,13.62,11.39ZM7,8.75A1.75,1.75,0,0,0,8.75,7,1.75,1.75,0,0,0,7,5.25,1.75,1.75,0,0,0,5.25,7,1.75,1.75,0,0,0,7,8.75Zm7-3.5A1.75,1.75,0,0,0,12.25,7a1.75,1.75,0,1,0,3-1.24A1.69,1.69,0,0,0,14,5.25Z"/>
</svg>