<svg xmlns="http://www.w3.org/2000/svg" viewBox="0 0 50 50">
    <path d="M10.67,25.83H9.42a2.76,2.76,0,0,1-2.75-2.66V16.92a2.69,2.69,0,0,1,2.66-2.67h1.25a2.69,2.69,0,0,1,2.67,2.67v6.25A2.62,2.62,0,0,1,10.67,25.83Zm-1.34-10a1,1,0,0,0-1,1v6.25a1,1,0,0,0,1,1h1.25a1,1,0,0,0,1-1V16.83a1,1,0,0,0-1-1Z"/>
    <path d="M28.33,45.83H21.67a.74.74,0,0,1-.67-.41,1.36,1.36,0,0,1-.08-.84l3.33-7.5a.81.81,0,0,1,.75-.5.73.73,0,0,1,.75.5l3.33,7.5a1,1,0,0,1-.08.84A.85.85,0,0,1,28.33,45.83Zm-5.41-1.66H27l-2-4.59Z"/>
    <path d="M20.83,50a.74.74,0,0,1-.66-.33A.9.9,0,0,1,20,49l.83-4.17a.82.82,0,0,1,.84-.66h6.66a.82.82,0,0,1,.84.66L30,49a.66.66,0,0,1-.17.67.74.74,0,0,1-.66.33Zm1.5-4.17-.5,2.5h6.34l-.5-2.5Z"/>
    <path d="M21.67,45.83A1,1,0,0,1,21,45.5l-6.67-9.17a1.15,1.15,0,0,1-.16-.66L15,32.33a1.11,1.11,0,0,1,.5-.58,1.2,1.2,0,0,1,.75,0l.25.08.25.25C19.08,35,22,36.67,25,36.67a.75.75,0,0,1,.67.41,1.44,1.44,0,0,1,.08.84l-3.33,7.5a.84.84,0,0,1-.67.5A.08.08,0,0,0,21.67,45.83ZM15.92,35.67l5.58,7.66,2.25-5.08a12.53,12.53,0,0,1-7.5-4.08Z"/>
    <path d="M28.33,45.83h-.08a.74.74,0,0,1-.67-.5l-3.33-7.5a1,1,0,0,1,.08-.83.76.76,0,0,1,.67-.33c3.08,0,6-1.59,8.25-4.59l.25-.25.25-.08a.8.8,0,0,1,.75,0,.86.86,0,0,1,.5.58l.83,3.34a.63.63,0,0,1-.16.66L29,45.5A1,1,0,0,1,28.33,45.83Zm-2.08-7.58,2.25,5.08,5.58-7.66-.33-1.5A12.53,12.53,0,0,1,26.25,38.25Z"/>
    <path d="M49.17,50H28.83a.88.88,0,0,1-.83-.75,1.84,1.84,0,0,1,.17-.67l-.67-3.41a.66.66,0,0,1,.17-.67L33.08,37a.76.76,0,0,1,.67-.33h.5c3.67.41,7.75,1.91,13.25,4.83h0A4.78,4.78,0,0,1,50,45.58v3.59A.78.78,0,0,1,49.17,50ZM29.83,48.33h18.5V45.58a3.07,3.07,0,0,0-1.58-2.66c-5.25-2.75-9.17-4.17-12.58-4.67l-5,6.83Z"/>
    <path d="M20.83,50H.83A.78.78,0,0,1,0,49.17V45.58A4.43,4.43,0,0,1,2.5,41.5c5.5-2.92,9.58-4.42,13.25-4.83h.5a1,1,0,0,1,.67.33l5.41,7.5a.9.9,0,0,1,.17.67l-.83,4.16A.82.82,0,0,1,20.83,50ZM1.67,48.33h18.5l.66-3.16-5-6.84c-3.41.42-7.25,1.84-12.58,4.67a2.86,2.86,0,0,0-1.58,2.58Z"/>
    <path d="M21.17,50h-.34a.78.78,0,0,1-.83-.83.79.79,0,0,1,.83-.84h.34a.79.79,0,0,1,.83.84A.83.83,0,0,1,21.17,50Z"/>
    <path d="M40.67,25.83H39.42a2.69,2.69,0,0,1-2.67-2.66V16.92a2.69,2.69,0,0,1,2.67-2.67h1.25a2.68,2.68,0,0,1,2.66,2.67v6.25A2.74,2.74,0,0,1,40.67,25.83Zm-1.34-10a1,1,0,0,0-1,1v6.25a1,1,0,0,0,1,1h1.25a1,1,0,0,0,1-1V16.83a1,1,0,0,0-1-1Z"/>
    <path d="M40,15.83a.78.78,0,0,1-.83-.83C39.17,3.42,30.25,1.67,25,1.67S10.83,3.42,10.83,15a.83.83,0,0,1-1.66,0C9.17,10.5,10.75,0,25,0S40.83,10.5,40.83,15A.78.78,0,0,1,40,15.83Z"/>
    <path d="M25,38.33c-7.67,0-13.33-8.33-13.33-15.83V16.67a13.33,13.33,0,1,1,26.66,0V22.5C38.33,30,32.67,38.33,25,38.33ZM25,5A11.7,11.7,0,0,0,13.33,16.67V22.5c0,8.08,6.17,14.17,11.67,14.17S36.67,30.58,36.67,22.5V16.67A11.7,11.7,0,0,0,25,5Z"/>
    <path d="M25.83,32.5a.78.78,0,0,1-.83-.83.79.79,0,0,1,.83-.84C37.58,30.83,39.17,28,39.17,25a.83.83,0,0,1,1.66,0C40.83,30.25,36.33,32.5,25.83,32.5Z"/>
</svg>
