<svg xmlns="http://www.w3.org/2000/svg" width="25" height="27" viewBox="0 0 25 27">
  <path d="M7.889,26.999 C5.785,26.999 3.822,26.192 2.314,24.682 C0.806,23.207 -0.000,21.241 -0.000,19.170 C-0.000,17.204 0.771,15.343 2.174,13.974 L14.621,1.685 C15.708,0.597 17.180,-0.000 18.793,-0.000 C20.476,-0.000 22.089,0.631 23.211,1.755 C24.333,2.879 24.999,4.494 24.999,6.179 C24.999,7.759 24.403,9.234 23.281,10.322 L12.657,20.820 C11.851,21.628 10.764,22.049 9.607,22.049 C8.415,22.049 7.258,21.557 6.451,20.750 C5.610,19.907 5.119,18.748 5.119,17.590 C5.119,16.466 5.575,15.343 6.381,14.570 L14.796,6.249 L16.269,7.759 L7.854,16.080 C7.433,16.466 7.223,17.028 7.223,17.590 C7.223,18.187 7.468,18.818 7.924,19.240 C8.380,19.697 8.976,19.942 9.607,19.942 C10.203,19.942 10.764,19.732 11.185,19.310 L21.774,8.812 C22.475,8.110 22.861,7.197 22.861,6.179 C22.861,5.056 22.440,4.002 21.703,3.265 C20.967,2.563 19.880,2.141 18.758,2.141 C17.741,2.141 16.760,2.528 16.093,3.230 L3.646,15.518 C2.665,16.502 2.104,17.800 2.104,19.205 C2.104,20.715 2.700,22.119 3.786,23.207 C4.873,24.296 6.346,24.893 7.854,24.893 C9.291,24.893 10.624,24.366 11.605,23.383 L21.879,13.236 L23.351,14.746 L22.545,15.553 L13.078,24.893 C11.746,26.262 9.887,26.999 7.889,26.999 Z"/>
</svg>
