<svg xmlns="http://www.w3.org/2000/svg" id="icon-megaphone" viewBox="0 0 50 56.85">
	<path d="M27.37,3.58a5,5,0,0,0-7.67,6.33l0,0.13a34.85,34.85,0,0,1-9.56,17.87L1.46,36.55a5,5,0,0,0,0,7.06l4.71,4.71a5,5,0,0,0,7.06,0l1.18-1.18,8.24,8.24a5,5,0,0,0,7.06-7.06l-3.53-3.53,1.18-1.18a5,5,0,0,0,0-7.06l-0.8-.8a34.86,34.86,0,0,1,13.18-5.63l0.13,0a5,5,0,0,0,6.33-.61h0a5,5,0,0,0,0-7.06ZM8.53,46L3.82,41.26a1.66,1.66,0,0,1,0-2.35l8.24-8.24,7.06,7.06L10.88,46A1.66,1.66,0,0,1,8.53,46ZM27.37,53A1.67,1.67,0,0,1,25,53l-8.24-8.24,2.35-2.35,8.24,8.24A1.67,1.67,0,0,1,27.37,53ZM25,38.9a1.66,1.66,0,0,1,0,2.35l-1.18,1.18-2.35-2.35c0.5-.5,1.25-1.27,2.43-2.28Zm-3.46-3.46-7.21-7.21a38.13,38.13,0,0,0,8.11-15.44L37,27.33A38.13,38.13,0,0,0,21.55,35.44Zm22.3-8.31a1.66,1.66,0,0,1-2.35,0L22.66,8.29A1.67,1.67,0,0,1,25,5.94L43.85,24.77A1.67,1.67,0,0,1,43.85,27.13Z"/>
	<path d="M13.24,38.9a1.67,1.67,0,0,0-2.35-2.35L8.53,38.9a1.67,1.67,0,0,0,2.35,2.35Z"/>
	<path d="M36.68,5V1.67a1.67,1.67,0,0,0-3.33,0V5A1.67,1.67,0,0,0,36.68,5Z"/>
	<path d="M48.33,13.32H45a1.67,1.67,0,1,0,0,3.33h3.33A1.67,1.67,0,1,0,48.33,13.32Z"/>
	<path d="M42.85,9.5l3.33-3.33a1.67,1.67,0,0,0-2.35-2.35L40.5,7.15A1.67,1.67,0,0,0,42.85,9.5Z"/>
</svg>
