<svg xmlns="http://www.w3.org/2000/svg" xmlns:xlink="http://www.w3.org/1999/xlink" preserveAspectRatio="xMidYMid" width="20" height="15" viewBox="0 0 20 15">
  <defs>
    <style>
      .cls-1 {
        fill: #60bc4f;
        fill-rule: evenodd;
      }
    </style>
  </defs>
  <path d="M19.977,3.690 L18.017,13.583 C18.010,13.619 17.992,13.648 17.979,13.681 C17.833,14.624 17.291,14.998 16.170,14.998 L2.881,14.998 C1.543,14.998 1.022,14.476 1.022,13.138 L0.003,4.925 C-0.001,3.687 0.397,3.133 1.389,3.012 L2.306,0.434 C2.398,0.174 2.644,0.000 2.920,0.000 L8.382,0.000 C8.654,0.000 8.898,0.170 8.993,0.425 L9.942,2.987 L15.094,2.987 C16.232,2.987 17.025,3.726 17.217,4.965 L17.613,8.930 L18.691,3.494 C18.814,2.316 17.990,2.041 17.673,1.981 L11.237,1.981 C10.878,1.981 10.586,1.689 10.586,1.329 C10.586,0.970 10.878,0.678 11.237,0.678 L17.728,0.678 C17.758,0.678 17.787,0.680 17.816,0.684 C18.496,0.776 20.210,1.497 19.977,3.690 ZM15.926,5.129 C15.810,4.389 15.420,4.290 15.094,4.290 L9.490,4.290 C9.218,4.290 8.974,4.120 8.879,3.865 L7.930,1.303 L3.379,1.303 L2.472,3.857 C2.380,4.116 2.134,4.290 1.858,4.290 C1.450,4.290 1.349,4.337 1.333,4.346 C1.334,4.346 1.334,4.346 1.334,4.346 C1.344,4.346 1.301,4.453 1.301,4.845 L2.319,13.058 C2.324,13.545 2.371,13.646 2.380,13.662 C2.379,13.660 2.380,13.659 2.383,13.659 C2.403,13.659 2.525,13.695 2.881,13.695 L16.170,13.695 C16.578,13.695 16.679,13.648 16.695,13.639 C16.684,13.638 16.728,13.569 16.728,13.138 L15.926,5.129 Z" class="cls-1"/>
</svg>
