<svg xmlns="http://www.w3.org/2000/svg" id="icon-network-instagram" viewBox="0 0 100 100"><path d="M49.8,24.3c-7.2,0-13.3,2.6-18.2,7.5c-4.9,5.1-7.5,11-7.5,18.2c0,7.2,2.6,13.3,7.5,18.2   c5.1,4.9,11,7.5,18.2,7.5c7.2,0,13.3-2.6,18.2-7.5c4.9-5.1,7.5-11,7.5-18.2c0-7.2-2.6-13.3-7.5-18.2C63.1,26.6,57,24.3,49.8,24.3z    M61.7,61.7c-3.3,3.3-7.2,4.9-11.9,4.9c-4.7,0-8.6-1.6-11.9-4.9c-3.3-3-4.9-7-4.9-11.7c0-4.7,1.6-8.6,4.9-11.9   c3.3-3.3,7.2-4.9,11.9-4.9c4.7,0,8.6,1.6,11.9,4.9c3.3,3.3,4.9,7.5,4.9,11.9C66.6,54.4,65,58.4,61.7,61.7z"></path><path d="M76.6,17.1c-1.6,0-3,0.7-4.2,1.9c-1.2,1.2-1.9,2.6-1.9,4.2c0,1.6,0.7,3,1.9,4.2c1.2,1.2,2.6,1.9,4.2,1.9   c1.6,0,3-0.7,4.2-1.9c1.2-1.2,1.9-2.6,1.9-4.2c0-1.6-0.7-3-1.9-4.2C79.7,17.8,78.3,17.1,76.6,17.1z"></path><path d="M99.8,29.4c-0.5-9.1-3.3-15.9-8.2-21c-4.9-5.1-11.9-7.7-21-8.2C66.8,0,60,0,50,0c-9.8,0-16.8,0-20.6,0.2   c-9.1,0.5-16.1,3.3-21,8.2c-5.1,4.9-7.7,11.9-8.2,21C0,33.2,0,40.2,0,50c0,9.8,0,16.8,0.2,20.6c0.5,9.1,3.3,16.1,8.2,21   c4.9,5.1,11.9,7.7,21,8.2C33.2,100,40,100,50,100c9.8,0,16.8,0,20.6-0.2c9.1-0.5,15.9-3.3,21-8.2c5.1-4.9,7.7-11.9,8.2-21   C100,66.8,100,60,100,50C100,40,99.8,33.2,99.8,29.4z M91.1,45.1V50v4.9v6.8c0,1.6-0.2,3.7-0.2,6.3c-0.2,2.8-0.5,4.9-0.7,6.8   c-0.2,1.9-0.7,3.5-1.2,4.7c-0.9,2.3-2.1,4.2-3.7,5.8c-1.9,1.6-3.7,2.8-5.8,3.7c-1.2,0.5-2.8,0.9-4.7,1.2c-1.9,0.5-4.2,0.7-6.8,0.7   c-2.6,0.2-4.7,0.2-6.3,0.2H38.3c-1.6,0-3.5,0-6.3-0.2c-2.8-0.2-4.9-0.5-6.8-0.7c-1.9-0.2-3.5-0.7-4.7-1.2c-2.3-0.9-4.2-2.1-5.8-3.7   c-1.6-1.9-2.8-3.7-3.7-5.8c-0.5-1.2-0.7-2.8-1.2-4.7c-0.5-1.9-0.7-4.2-0.7-6.8c-0.2-2.6-0.2-4.7-0.2-6.3V38.3   c0-1.6,0.2-3.7,0.2-6.3c0.2-2.8,0.5-4.9,0.7-6.8c0.2-1.9,0.7-3.5,1.2-4.7c0.9-2.3,2.1-4.2,3.7-5.8c1.9-1.6,3.7-2.8,5.8-3.7   c1.2-0.5,2.8-0.9,4.7-1.2c1.9-0.5,4.2-0.7,6.8-0.7c2.6-0.2,4.7-0.2,6.3-0.2h16.6h6.8c1.6,0,3.7,0.2,6.3,0.2   c2.8,0.2,4.9,0.5,6.8,0.7c1.9,0.2,3.5,0.7,4.7,1.2c2.3,0.9,4.2,2.1,5.8,3.7c1.6,1.9,2.8,3.7,3.7,5.8c0.5,1.2,0.9,2.8,1.2,4.7   c0.5,1.9,0.7,4.2,0.7,6.8c0.2,2.6,0.2,4.7,0.2,6.3V45.1z"></path></svg>