<svg xmlns="http://www.w3.org/2000/svg" viewBox="0 0 24 21">
	<path d="M11.94,0c1.44,0,1.83,1.1,2.37,2l1,1.67,7.11,12.12,0.9,1.55a5.67,5.67,0,0,1,.63,1.21,2,2,0,0,1-1,2.23A5.49,5.49,0,0,1,20.6,21H2.8a6.94,6.94,0,0,1-1.22,0A1.94,1.94,0,0,1,0,19.46a2.1,2.1,0,0,1,0-1.05,8.08,8.08,0,0,1,.81-1.47L2.62,14,7.88,5,9.55,2.19A13.48,13.48,0,0,1,10.4.77a2,2,0,0,1,1-.67Zm0,2L2,19H22ZM11.93,7.22a1.31,1.31,0,0,1,1.39,1.25,1.4,1.4,0,0,1-.05.47l-0.12.71-0.27,1.55-0.16.93c-0.09.55-.14,0.92-0.71,1a0.64,0.64,0,0,1-.63-0.37,2.49,2.49,0,0,1-.12-0.57l-0.17-1L10.78,9.38a2.8,2.8,0,0,1-.11-1.06,1.29,1.29,0,0,1,.58-0.88,1.39,1.39,0,0,1,.44-0.19Zm0,7.21a1.32,1.32,0,0,1,.82,2.4,1.62,1.62,0,0,1-.7.22,1.1,1.1,0,0,1-.58-0.11,1.31,1.31,0,0,1-.31-2.21A1.75,1.75,0,0,1,11.91,14.43Z"/>
</svg>