<svg xmlns="http://www.w3.org/2000/svg" viewBox="0 0 40 41">
	<path d="M38.68,24H38.06V18.49A2.59,2.59,0,0,0,37,16.37V15.62a2,2,0,0,0-2-2H34.5l1.77-2.57a1.89,1.89,0,0,0-.5-2.63l-12-8.11a1.91,1.91,0,0,0-2.65.5L10.79,15.89H7.92l0.69-7a0.21,0.21,0,0,1,.13-0.17A4.47,4.47,0,0,0,10.92,7a0.21,0.21,0,0,1,.2-0.09l4.51,0.44a0.58,0.58,0,1,0,.12-1.16l-4.51-.44a1.38,1.38,0,0,0-1.3.63,3.28,3.28,0,0,1-1.6,1.29A1.37,1.37,0,0,0,7.44,8.8L6.73,15.89H6l1.1-11a0.73,0.73,0,0,1,.8-0.65L17,5.1a0.58,0.58,0,1,0,.12-1.16L8,3a1.9,1.9,0,0,0-2.08,1.7L5,13.64H3.52a2,2,0,0,0-2,2v0.51A2.6,2.6,0,0,0,0,18.49V38.4A2.61,2.61,0,0,0,2.62,41H35.44a2.61,2.61,0,0,0,2.62-2.6V32.88h0.62A1.32,1.32,0,0,0,40,31.56V25.33A1.32,1.32,0,0,0,38.68,24ZM35,14.8h0a0.81,0.81,0,0,1,.82.81v0.3l-0.33,0h-2.5l0.75-1.09H35ZM22.11,1.49a0.72,0.72,0,0,1,.47-0.3h0.14a0.73,0.73,0,0,1,.41.13l12,8.11a0.72,0.72,0,0,1,.19,1l-3.77,5.49h-0.9l1.85-2.69a1.36,1.36,0,0,0,.06-1.45,3.25,3.25,0,0,1-.39-2,1.36,1.36,0,0,0-.6-1.31l-6.21-4.2a1.38,1.38,0,0,0-1.45-.07,3.31,3.31,0,0,1-2,.37,1.4,1.4,0,0,0-1.33.59l-7.4,10.78h-0.9Zm0.26,9.92a4.84,4.84,0,0,0-4.84,4.49h-3L21.49,5.77h0a0.21,0.21,0,0,1,.17-0.09h0a4.5,4.5,0,0,0,2.77-.51,0.21,0.21,0,0,1,.22,0l6.21,4.2a0.21,0.21,0,0,1,.09.19,4.41,4.41,0,0,0,.54,2.74,0.21,0.21,0,0,1,0,.22l-2.3,3.35h-2A4.84,4.84,0,0,0,22.36,11.41ZM26,15.89H18.71A3.67,3.67,0,0,1,26,15.89ZM2.7,15.62a0.81,0.81,0,0,1,.82-0.81H4.91L4.8,15.89H2.7V15.62ZM1.18,18.49a1.43,1.43,0,0,1,1.44-1.43H35.44a1.43,1.43,0,0,1,1.44,1.43v1.62H1.18V18.49ZM36.88,38.4a1.43,1.43,0,0,1-1.44,1.43H2.62A1.43,1.43,0,0,1,1.18,38.4V36.78H4.35a0.58,0.58,0,1,0,0-1.17H1.18V21.28H36.88V24H31.29a4.47,4.47,0,0,0-4,2.5h0l0,0a4.39,4.39,0,0,0-.22.56h0a4.39,4.39,0,0,0-.2,1.31,4.45,4.45,0,0,0,4.46,4.43h5.59v2.74H8.12a0.58,0.58,0,1,0,0,1.17H36.88V38.4Zm1.94-6.84a0.15,0.15,0,0,1-.15.14H31.29A3.29,3.29,0,0,1,28.4,30l-0.07-.14q-0.07-.14-0.12-0.29a3.24,3.24,0,0,1,0-2.24q0.06-.15.12-0.29l0.07-.14a3.29,3.29,0,0,1,2.89-1.71h7.39a0.15,0.15,0,0,1,.15.14v6.24h0Z"/>
	<path d="M31.43,26.08a2.37,2.37,0,1,0,2.39,2.37A2.38,2.38,0,0,0,31.43,26.08Zm0,3.57a1.2,1.2,0,1,1,1.21-1.2A1.21,1.21,0,0,1,31.43,29.65Z"/>
</svg>