<svg xmlns="http://www.w3.org/2000/svg" id="icon-phone" viewBox="0 0 100 100"><path d="M96.3,70.4C93.3,68.6,77.9,59.4,75,58.1c-5-2.1-8.5,1.2-10.4,2.9l-0.4,0.3c-1.1,1.1-2.9,2.6-4.2,3.7  c-1.2-0.4-3.7-1.7-8.6-5.4c-5.8-4.5-12.9-13.6-15.3-17c-0.7-1-1.1-2.1-1.3-3c1-0.9,2.4-2.3,3.8-3.8c4.1-4.3,3-8.8,2.9-9.3  c-0.1-0.3-0.2-0.6-0.3-0.9l-8-15C29.6,2.9,27.1,0.1,24,0c-0.9,0-1.7,0.2-2.4,0.7c-3.7,1.5-6.7,4.2-8.9,6.4c-0.4,0.4-1,0.9-1.7,1.6  c-4.2,3.9-8.5,8-10.1,11.5c-2.2,4.7,0.4,14.6,1.6,18.6c0,0.1,0,0.1,0.1,0.2c6.2,17.7,20.7,32.2,21.3,32.7C37.8,86.5,52.5,96,66.1,99  c3,0.7,5.6,1,7.8,1c6.9,0,9.9-2.8,11-4.4c1.8-1.7,10.4-10.2,13.2-13.5c2.1-2.5,2.2-4.9,2-6.4C99.5,72.5,96.9,70.8,96.3,70.4z   M79,90.2c-0.3,0.3-0.6,0.7-0.8,1c0,0-2.8,1.7-10.4,0C56,88.5,42.4,79.6,29.4,66C29.3,65.9,15.7,52.3,10,36.4  c-1.5-5.3-2.5-11.5-1.9-12.9c1.1-2.3,6.1-6.9,8.3-8.9c0.8-0.8,1.5-1.4,1.9-1.8c1.2-1.2,3-2.9,4.8-4c0.7,1,1.6,2.7,2.9,5.5  c0,0.1,0.1,0.1,0.1,0.2l7.7,14.4c-0.1,0.3-0.3,0.9-0.9,1.6c-2.5,2.6-4.9,4.7-4.9,4.7c-0.9,0.8-1.4,1.9-1.4,3c0,0.5,0.1,4.9,2.9,9  c1.7,2.5,9.7,13.2,17,18.8c7.2,5.6,11.8,7.7,15.3,7.3c0.8-0.1,1.5-0.4,2.1-1c0,0,3.7-3.3,5.6-5l0.4-0.4c0.6-0.5,1.4-1.3,1.8-1.4  c1.7,0.7,12.6,7.1,20,11.6C89.5,79.9,81.8,87.5,79,90.2z"></path></svg>