<svg id="icon-pallet" xmlns="http://www.w3.org/2000/svg"
     viewBox="0 0 260.03 233.61">
  <path d="M67.85,155.54A21.26,21.26,0,0,0,54.74,151a21,21,0,0,0-16.46,7.85,20.83,20.83,0,0,0,3.34,29.45,21.22,21.22,0,0,0,13.11,4.55A21,21,0,0,0,71.2,185a20.83,20.83,0,0,0-3.34-29.44h0ZM63.72,179a11.56,11.56,0,0,1-16.15,1.8,11.23,11.23,0,0,1-1.82-15.89,11.57,11.57,0,0,1,16.15-1.79A11.23,11.23,0,0,1,63.72,179h0Zm0,0"/>
  <path d="M152.27,106.38a21.05,21.05,0,0,0,19.87-14.06,20.64,20.64,0,0,0-.93-16,21.14,21.14,0,0,0-28.11-9.77,20.85,20.85,0,0,0-9.84,27.95,21.24,21.24,0,0,0,19,11.84h0ZM141.39,81.74a11.25,11.25,0,0,1,5.84-6.49,11.54,11.54,0,0,1,15.34,5.3,11.12,11.12,0,0,1,.5,8.6,11.29,11.29,0,0,1-5.84,6.5,11.46,11.46,0,0,1-5,1.13,11.58,11.58,0,0,1-10.37-6.45,11.1,11.1,0,0,1-.5-8.59h0Zm0,0"/>
  <path d="M100,72.46a21.39,21.39,0,0,0,4.7.52,20.94,20.94,0,0,0,20.54-16.26,20.95,20.95,0,0,0-15.87-25.06A21.08,21.08,0,0,0,84.16,47.4a20.68,20.68,0,0,0,2.67,15.75A20.92,20.92,0,0,0,100,72.46h0ZM93.52,49.55a11.37,11.37,0,0,1,11.16-8.82,11.92,11.92,0,0,1,2.59.29,11.4,11.4,0,0,1,7.18,5.07,11.16,11.16,0,0,1,1.45,8.49,11.51,11.51,0,0,1-11.18,8.81,11.79,11.79,0,0,1-2.58-.29A11.37,11.37,0,0,1,95,58a11.15,11.15,0,0,1-1.44-8.49h0Zm0,0"/>
  <path d="M61.89,84.43A20.86,20.86,0,0,0,65.22,55a21.19,21.19,0,0,0-29.58-3.31A20.84,20.84,0,0,0,32.3,81.13a21.16,21.16,0,0,0,29.58,3.3h0Zm-22.1-9.32a11.24,11.24,0,0,1,1.8-15.9A11.6,11.6,0,0,1,57.75,61a11.27,11.27,0,0,1-1.82,15.91,11.57,11.57,0,0,1-16.14-1.8h0Zm0,0"/>
  <path d="M258.2,37.46a6.32,6.32,0,0,0-4.64-1.84c-2.74,0-10,0-54.19,37.59l-2.68,2.29A117.78,117.78,0,0,0,86.48,0h0c-17.32,0-38.38,6.05-55,15.8C11.18,27.75,0,43.72,0,60.78,0,81.38,11.63,90,21,96.92c7.61,5.65,13.62,10.11,13.62,19.88S28.58,131,21,136.66C11.64,143.58,0,152.19,0,172.79c0,17.06,11.2,33,31.52,45,16.59,9.76,37.66,15.82,55,15.83h0a117.45,117.45,0,0,0,83.24-34.18,115.47,115.47,0,0,0,34.48-81.33c7.45-8.48,14.67-16.91,21.27-24.86,11.28-13.59,19.95-24.8,25.77-33.32,7.71-11.29,11.09-18.21,6.87-22.47h0ZM163.05,192.62A107.9,107.9,0,0,1,86.57,224h0c-31,0-76.9-21.52-76.91-51.23,0-15.77,8.28-21.91,17.06-28.42,8.2-6.08,17.5-13,17.5-27.58s-9.3-21.5-17.51-27.59C17.9,82.7,9.61,76.55,9.6,60.78,9.6,42.54,26.37,30,36.37,24.07,51.33,15.28,71,9.6,86.46,9.6h0A108.2,108.2,0,0,1,188.91,82.23c-20.82,18.18-43.37,39.14-60.16,56-27.89,3.61-31.69,22.2-34.46,35.85-2.36,11.63-3.9,17.25-12.87,18A4.8,4.8,0,0,0,80,201.25a87.83,87.83,0,0,0,30.34,5.85h0c11.18,0,20.76-2.71,28.49-8.05,9.52-6.58,16-17,19.23-31,11-11.1,23.51-24.48,35.9-38.27a106,106,0,0,1-30.88,62.86h0Zm-14.67-25.5c-5.09,20.16-17.88,30.38-38.07,30.37h0a72.29,72.29,0,0,1-14.71-1.63c5.12-5.22,6.72-13.08,8.1-19.89,2.64-13,5.13-25.24,25.54-28.15Zm66.29-75.81c-19,22.67-42.06,48.12-61,67.48l-2.93-3-13-13C155,125.67,177,105.27,197.58,87.41c2.4-2.08,4.78-4.14,7.13-6.14C228.59,60.91,241.1,52,247.48,48.19c-3.81,6.42-12.59,19-32.82,43.13h0Zm0,0"/>
</svg>
