<svg xmlns="http://www.w3.org/2000/svg" width="11" height="11" viewBox="0 0 11 11">
 <path d="M8.000,11.000 L8.000,8.000 L11.000,8.000 L11.000,11.000 L8.000,11.000 ZM8.000,4.000 L11.000,4.000 L11.000,7.000 L8.000,7.000 L8.000,4.000 ZM8.000,-0.000 L11.000,-0.000 L11.000,3.000 L8.000,3.000 L8.000,-0.000 ZM4.000,8.000 L7.000,8.000 L7.000,11.000 L4.000,11.000 L4.000,8.000 ZM4.000,4.000 L7.000,4.000 L7.000,7.000 L4.000,7.000 L4.000,4.000 ZM4.000,-0.000 L7.000,-0.000 L7.000,3.000 L4.000,3.000 L4.000,-0.000 ZM-0.000,8.000 L3.000,8.000 L3.000,11.000 L-0.000,11.000 L-0.000,8.000 ZM-0.000,4.000 L3.000,4.000 L3.000,7.000 L-0.000,7.000 L-0.000,4.000 ZM-0.000,-0.000 L3.000,-0.000 L3.000,3.000 L-0.000,3.000 L-0.000,-0.000 Z"/>
</svg>
