<?xml version="1.0" standalone="no"?>
<!DOCTYPE svg PUBLIC "-//W3C//DTD SVG 20010904//EN"
 "http://www.w3.org/TR/2001/REC-SVG-20010904/DTD/svg10.dtd">
<svg version="1.0" xmlns="http://www.w3.org/2000/svg"
 width="260.000000pt" height="260.000000pt" viewBox="0 0 260.000000 260.000000"
 preserveAspectRatio="xMidYMid meet">
<metadata>
Created by potrace 1.11, written by Peter Selinger 2001-2013
</metadata>
<g transform="translate(0.000000,260.000000) scale(0.100000,-0.100000)"
fill="#000000" stroke="none">
<path d="M1308 2395 c-2 -2 -68 -6 -148 -10 -212 -11 -424 -23 -510 -30 -25
-2 -88 -6 -140 -10 -155 -12 -275 -58 -339 -131 -39 -44 -48 -80 -30 -113 17
-31 108 -78 164 -85 112 -14 126 -15 425 -31 58 -3 137 -8 175 -10 81 -5 221
-13 350 -20 276 -15 337 -29 452 -101 139 -88 232 -257 257 -469 8 -60 15
-115 21 -160 2 -22 12 -94 20 -160 9 -66 18 -131 20 -145 2 -14 7 -46 10 -72
3 -26 9 -78 14 -115 6 -38 13 -93 16 -123 19 -175 58 -299 113 -357 47 -52
100 -41 146 30 47 73 64 150 71 327 2 63 7 198 12 300 9 237 10 525 1 615 -26
274 -86 489 -174 621 -112 169 -362 253 -751 252 -95 0 -174 -2 -175 -3z"/>
</g>
</svg>
